<?xml version="1.0" encoding="UTF-8" standalone="no"?>
<!-- Created with Inkscape (http://www.inkscape.org/) -->

<svg
   width="48mm"
   height="48mm"
   viewBox="0 0 48 48"
   version="1.1"
   id="svg1"
   xml:space="preserve"
   sodipodi:docname="sidebarIcon.svg"
   inkscape:export-filename="32.png"
   inkscape:export-xdpi="19.5254"
   inkscape:export-ydpi="19.5254"
   inkscape:version="1.4.2 (ebf0e940d0, 2025-05-08)"
   xmlns:inkscape="http://www.inkscape.org/namespaces/inkscape"
   xmlns:sodipodi="http://sodipodi.sourceforge.net/DTD/sodipodi-0.dtd"
   xmlns="http://www.w3.org/2000/svg"
   xmlns:svg="http://www.w3.org/2000/svg"><sodipodi:namedview
     id="namedview1"
     pagecolor="#ffffff"
     bordercolor="#000000"
     borderopacity="0.25"
     inkscape:showpageshadow="2"
     inkscape:pageopacity="0.0"
     inkscape:pagecheckerboard="0"
     inkscape:deskcolor="#d1d1d1"
     inkscape:document-units="mm"
     inkscape:zoom="2"
     inkscape:cx="118"
     inkscape:cy="72.5"
     inkscape:window-width="1920"
     inkscape:window-height="1008"
     inkscape:window-x="0"
     inkscape:window-y="0"
     inkscape:window-maximized="1"
     inkscape:current-layer="g16" /><defs
     id="defs1"><inkscape:path-effect
       effect="fillet_chamfer"
       id="path-effect9"
       is_visible="true"
       lpeversion="1"
       nodesatellites_param="F,0,0,1,0,34.778949,0,1 @ F,0,1,1,0,19.724036,0,1 @ F,0,0,1,0,24.214477,0,1 @ F,0,0,1,0,19.724036,0,1 @ F,0,0,1,0,29.918308,0,1 @ F,0,0,1,0,27.825351,0,1 @ F,0,0,1,0,27.068464,0,1 @ F,0,0,1,0,32.943453,0,1 @ F,0,0,1,0,19.395248,0,1"
       radius="0"
       unit="px"
       method="auto"
       mode="F"
       chamfer_steps="1"
       flexible="false"
       use_knot_distance="true"
       apply_no_radius="true"
       apply_with_radius="true"
       only_selected="false"
       hide_knots="false" /><inkscape:path-effect
       effect="fillet_chamfer"
       id="path-effect7"
       is_visible="true"
       lpeversion="1"
       nodesatellites_param="F,0,0,1,0,0,0,1 @ F,0,0,1,0,24.214477,0,1 @ F,0,0,1,0,29.918308,0,1 @ F,0,0,1,0,27.825351,0,1 @ F,0,0,1,0,27.068464,0,1 @ F,0,0,1,0,0,0,1 @ F,0,0,1,0,0,0,1"
       radius="0"
       unit="px"
       method="auto"
       mode="F"
       chamfer_steps="1"
       flexible="false"
       use_knot_distance="true"
       apply_no_radius="true"
       apply_with_radius="true"
       only_selected="false"
       hide_knots="false" /><inkscape:path-effect
       effect="fillet_chamfer"
       id="path-effect5"
       is_visible="true"
       lpeversion="1"
       nodesatellites_param="F,0,0,1,0,34.778949,0,1 @ F,0,1,1,0,19.724036,0,1 @ F,0,0,1,0,24.214477,0,1 @ F,0,0,1,0,19.724036,0,1 @ F,0,0,1,0,29.918308,0,1 @ F,0,0,1,0,27.825351,0,1 @ F,0,0,1,0,27.068464,0,1 @ F,0,0,1,0,32.943453,0,1 @ F,0,0,1,0,19.395248,0,1"
       radius="0"
       unit="px"
       method="auto"
       mode="F"
       chamfer_steps="1"
       flexible="false"
       use_knot_distance="true"
       apply_no_radius="true"
       apply_with_radius="true"
       only_selected="false"
       hide_knots="false" /><linearGradient
       id="swatch1"
       inkscape:swatch="solid"><stop
         style="stop-color:#000000;stop-opacity:1;"
         offset="0"
         id="stop1" /></linearGradient><clipPath
       clipPathUnits="userSpaceOnUse"
       id="clipPath74"><path
         id="path75"
         style="fill:#ff0000;fill-opacity:1;fill-rule:nonzero;stroke:none;stroke-width:0.264583"
         d="m 117.99798,64.826285 v 14.320057 c 0.0203,-0.0088 0.0417,-0.01714 0.0641,-0.02479 0.0414,-0.01442 0.0826,-0.02898 0.12402,-0.04341 0.18582,-0.06147 0.37254,-0.123492 0.54829,-0.210322 0.1038,-0.05066 0.20094,-0.113679 0.29714,-0.17725 0.12106,-0.07127 0.23818,-0.149741 0.3545,-0.22841 0.19693,-0.12801 0.39679,-0.251518 0.59583,-0.376205 0.26058,-0.167376 0.52497,-0.328182 0.8015,-0.468189 0.30641,-0.159832 0.6196,-0.30613 0.93276,-0.452167 0.39668,-0.182975 0.7969,-0.357434 1.19424,-0.538986 0.19897,-0.09428 0.39455,-0.195344 0.5886,-0.299206 0.11036,-0.05907 0.21044,-0.08586 0.29662,-0.08837 0.37347,-0.01085 0.4844,0.435277 0.005,0.691947 -0.0167,0.0089 -0.0334,0.01799 -0.0501,0.02687 0.0352,0.03096 0.0605,0.06882 0.0755,0.110587 0.052,-0.02566 0.10437,-0.05074 0.1571,-0.07493 0.11377,-0.0522 0.21559,-0.07287 0.30179,-0.07028 0.0168,5.29e-4 0.0329,0.0019 0.0486,0.0041 0.0307,-0.01648 0.0617,-0.03285 0.0925,-0.04909 0.20178,-0.109315 0.40206,-0.221244 0.60203,-0.33383 0.12726,-0.07165 0.24292,-0.0996 0.33952,-0.09612 0.0507,0.0019 0.0961,0.01207 0.13539,0.02946 0.0969,-0.07094 0.19421,-0.1412 0.29197,-0.210841 0.28548,-0.203356 0.5511,-0.283853 0.77101,-0.2775 0.6597,0.01905 0.90856,0.819716 0.0522,1.429885 -0.31215,0.222406 -0.61812,0.453586 -0.92811,0.679029 -0.39653,0.281276 -0.78443,0.574122 -1.17616,0.861963 -0.17984,0.134389 -0.36342,0.264207 -0.54777,0.392223 0.0919,0.03908 0.17882,0.08942 0.2403,0.170016 0.0363,0.04753 0.0674,0.08995 0.0941,0.128159 0.13073,-0.038 0.26239,-0.07227 0.39636,-0.09819 0.35004,-0.03625 0.75608,-0.136583 0.97565,0.364837 0.32202,0.735369 -0.31934,1.043231 -0.76585,1.307414 -0.1458,0.08172 -0.29154,0.163275 -0.4377,0.244428 0.43296,0.1564 0.85223,0.348242 1.24541,0.588079 0.17503,0.10677 0.34018,0.229864 0.51004,0.34468 0.17645,0.157922 0.3652,0.302514 0.52917,0.473358 0.46198,0.481341 0.88956,1.147371 1.09399,1.785938 0.24806,0.77634 0.20721,0.879761 0.25011,1.658813 -0.0279,0.259501 -0.0343,0.521967 -0.0837,0.778245 -0.19351,1.003832 -0.71961,1.963354 -1.55133,2.576071 0.0148,0.02315 0.0294,0.04656 0.0439,0.07028 0.33689,0.551807 0.32744,0.823326 0.44855,1.454174 0.073,1.000527 -0.1984,1.929874 -0.62322,2.824634 -0.072,0.151619 -0.15304,0.298574 -0.22944,0.448034 -0.0237,0.04182 -0.0476,0.08382 -0.0718,0.125574 0.73771,0.668359 1.26116,1.687878 1.23816,2.685108 -0.008,0.360831 -0.11258,0.713211 -0.16898,1.069703 -0.14373,0.2946 -0.25629,0.606626 -0.4315,0.883666 -0.15011,0.237339 -0.33736,0.464804 -0.54828,0.679545 0.12381,0.07262 0.24584,0.149674 0.37052,0.220654 0.18969,0.16388 0.39499,0.31097 0.56895,0.49145 0.53091,0.5508 0.8569,1.23816 1.00769,1.98333 0.1054,0.52056 0.072,0.77464 0.0615,1.29606 -0.0266,0.19796 -0.0422,0.39758 -0.0796,0.59375 -0.0607,0.31796 -0.15026,0.64275 -0.26924,0.95808 0.21807,0.0525 0.43238,0.11847 0.64079,0.20465 0.21717,0.0898 0.43623,0.18266 0.63097,0.31418 0.25758,0.17395 0.47787,0.39751 0.71675,0.59636 0.19531,0.31705 0.43769,0.60978 0.58601,0.95136 0.35765,0.8236 0.2561,1.77937 -0.0749,2.58691 -0.0977,0.23821 -0.19235,0.41115 -0.29765,0.56794 0.11057,0.38519 0.14179,0.80021 0.0749,1.2423 -0.0662,0.43865 -0.32835,0.82446 -0.49248,1.23661 -0.0583,0.0638 -0.11488,0.12933 -0.17105,0.19533 0.18043,0.0423 0.35965,0.0911 0.54054,0.13075 0.32996,0.16333 0.68689,0.28108 0.99012,0.4899 0.87253,0.60088 1.4524,1.51335 1.69705,2.5342 0.19153,0.79942 0.104,1.06372 0.0388,1.87689 -0.0556,0.2061 -0.0996,0.41569 -0.1571,0.62116 0.51388,-0.12139 1.10234,-0.26054 1.78181,-0.42118 0.32485,-0.0768 0.61893,-0.10287 0.87953,-0.0889 1.82429,0.0993 2.0151,2.17647 -0.2589,2.71404 -0.99197,0.23454 -1.78981,0.42318 -2.4443,0.57775 0.20181,0.35401 0.36876,0.72886 0.49041,1.12705 0.24802,0.81198 0.20375,1.0071 0.23565,1.83452 -0.0363,0.28221 -0.0476,0.56862 -0.10904,0.84647 -0.17823,0.80728 -0.55809,1.56697 -1.09502,2.19521 -0.47747,0.55866 -0.64112,0.62525 -1.23249,1.05832 -0.29354,0.14247 -0.57526,0.31222 -0.88056,0.42738 -0.24272,0.0915 -0.49371,0.16685 -0.74983,0.22736 0.28066,1.02869 0.52709,2.06617 0.74621,3.1099 0.12734,0.63256 0.18966,0.91323 0.29456,1.55752 0.17019,1.04544 0.28022,2.09918 0.37362,3.15382 0.0474,0.60147 0.0805,0.95414 0.10697,1.56063 0.042,0.96204 0.0313,1.92632 0.0124,2.88871 -0.0478,1.2252 -0.14523,2.44794 -0.28215,3.66645 -0.0292,0.19345 -0.0528,0.38835 -0.0879,0.58084 -0.14225,0.78318 -0.40697,1.54193 -0.74259,2.26188 -0.0831,0.15277 -0.15908,0.30952 -0.24908,0.45837 -0.19733,0.32643 -0.42333,0.6317 -0.67697,0.91105 0.14517,0.2187 0.28076,0.44395 0.42013,0.66508 0.31799,0.52251 0.64211,1.04347 1.01235,1.53065 0.46246,0.29579 0.88958,0.7773 1.21646,1.45728 0.11602,0.14532 0.22863,0.29271 0.33641,0.44389 0.48707,0.68321 0.88567,1.4174 1.10536,2.23191 0.0527,0.2517 0.11733,0.50157 0.15813,0.75551 0.14191,0.88408 0.13049,1.91667 0.0103,2.80241 -0.0342,0.25281 -0.0892,0.50281 -0.13385,0.75397 -0.10274,0.34245 -0.15844,0.56742 -0.24131,0.79478 0.009,1.25664 -0.0792,2.51244 -0.25374,3.7579 -0.17737,1.0795 -0.22708,1.54545 -0.51264,2.6107 -0.0338,0.12601 -0.0688,0.25106 -0.10489,0.37516 0.16523,0.14359 0.32131,0.30844 0.50488,0.55604 0.5196,0.70085 0.79257,1.53705 0.76068,2.41123 -0.0102,0.28124 -0.0851,0.55639 -0.12764,0.83457 -0.10324,0.26525 -0.18215,0.54129 -0.30955,0.79583 -0.15405,0.30775 -0.34776,0.58761 -0.56845,0.84491 0.59607,-0.23018 1.218,-0.43057 1.88,-0.25219 0.62561,0.16856 1.23013,0.49462 1.70119,0.93948 0.57673,0.54466 0.73814,1.45175 0.74414,2.19676 2.6e-4,0.0336 -5.3e-4,0.0672 -0.002,0.10077 1.9412,-0.47098 3.56115,1.61227 1.93374,4.67414 -0.20524,0.38613 -0.4445,0.75035 -0.70074,1.10277 -0.0514,0.50166 -0.19437,1.0564 -0.44906,1.65572 -0.38551,0.90713 -0.18914,0.45002 -0.58963,1.37046 -0.5431,1.22279 -1.09863,2.44022 -1.68879,3.64111 -0.36223,0.70906 -0.73777,1.41781 -1.25987,2.02521 -0.29316,0.33579 -0.59709,0.66283 -0.93224,0.95756 -0.17488,0.15306 -0.35454,0.30007 -0.53744,0.44339 -0.24155,0.17487 -0.49065,0.32299 -0.76171,0.43821 -0.0744,0.0467 -0.15111,0.0948 -0.14108,0.0868 -0.16658,0.094 -0.33519,0.18356 -0.50591,0.26974 -0.17894,0.0871 -0.22937,0.10817 -0.41444,0.20257 -0.1827,0.0746 -0.3468,0.19488 -0.53382,0.26098 -0.22153,0.0928 -0.44658,0.17494 -0.67334,0.25372 -0.0546,0.0176 -0.1081,0.0392 -0.1633,0.0548 -0.002,5.2e-4 -0.003,7.9e-4 -0.004,0.001 h -5.3e-4 c -0.12137,0.0491 -0.0714,0.0332 -0.13073,0.0517 -0.27631,0.11458 -0.55508,0.2248 -0.84544,0.29921 -0.27469,0.073 -0.55183,0.1355 -0.82991,0.1943 -0.28979,0.055 -0.57826,0.11791 -0.8718,0.1509 -0.17976,0.022 -0.35901,0.039 -0.53742,0.0718 -0.003,5.3e-4 -0.006,0.001 -0.008,0.002 -0.0334,0.007 -0.067,0.0132 -0.10025,0.0207 -0.33032,0.072 -0.66519,0.11526 -1.00098,0.15296 -0.4075,0.0369 -0.81461,0.0789 -1.22369,0.0946 -0.54901,0.0308 -1.09935,0.0517 -1.649,0.0238 -0.44564,-0.0251 -0.8942,-0.0575 -1.3255,-0.18087 l 5.3e-4,-5.3e-4 c -3.09435,-0.88487 0.38496,-2.20334 1.96629,-3.314 -0.20747,-0.0765 -0.40843,-0.17099 -0.6134,-0.25425 -0.23753,-0.14804 -0.49108,-0.27271 -0.71211,-0.44442 -0.78182,-0.60737 -1.35827,-1.51058 -1.39267,-2.52956 -0.0369,-1.09451 0.24293,-1.34081 0.73018,-2.2164 0.19318,-0.21602 0.37223,-0.4458 0.57981,-0.64803 0.40801,-0.39751 0.97495,-0.81466 1.44178,-1.13688 0.23471,-0.162 0.47262,-0.31876 0.71313,-0.4718 -0.15307,0.0485 -0.30672,0.095 -0.4594,0.14469 -0.27507,0.0628 -0.54581,0.14982 -0.82528,0.18862 -0.3322,0.0461 -0.66839,0.0781 -1.00355,0.0656 -0.96379,-0.0359 -1.97237,-0.36113 -2.69338,-1.02785 v 15.97061 h 68.07392 V 64.826285 Z m 6.58151,14.908649 c -0.0178,0.0031 -0.0669,0.03692 -0.11472,0.105939 0.0882,-0.056 0.12057,-0.09098 0.12144,-0.10232 v -5.29e-4 -5.29e-4 -5.29e-4 -5.29e-4 l -5.3e-4,-5.29e-4 -5.3e-4,-5.3e-4 h -5.3e-4 l -5.3e-4,-5.29e-4 h -5.3e-4 c -7.9e-4,-9e-5 -0.002,-1.14e-4 -0.004,0 z m -6.58099,0.06718 v 0.0155 c 0.01,-0.0046 0.0197,-0.0093 0.0294,-0.01394 -0.0101,-2.11e-4 -0.0198,-7.94e-4 -0.0294,-0.0016 z m 0.33848,8.327141 v 5.3e-4 h 5.3e-4 5.3e-4 v 5.29e-4 l 0.003,0.0016 h 5.3e-4 5.3e-4 c 0.054,0.02151 0.11131,0.03408 0.16691,0.05116 0.0101,0.0013 0.0203,0.0024 0.0305,0.0036 -0.0418,-0.01516 -0.084,-0.02947 -0.12661,-0.04186 -0.0187,-0.0054 -0.0684,-0.0163 -0.0744,-0.0155 z m 5.36815,5.119066 c -0.0364,5.29e-4 -0.0728,0.0039 -0.10904,0.0072 0.0266,0.0029 0.0536,0.005 0.0806,0.0067 0.0128,-0.0021 0.0268,-2.01e-4 0.0383,-0.0062 h 5.3e-4 v -5.29e-4 h 5.3e-4 v -5.29e-4 -5.3e-4 h -5.3e-4 v -5.29e-4 l -5.3e-4,-5.29e-4 c -0.002,-0.0019 -0.006,-0.0044 -0.009,-0.0052 z m -3.28094,3.701066 c -0.0172,7.94e-4 -0.0627,0.0019 -0.0677,0.0026 h -5.3e-4 v 5.29e-4 h 5.3e-4 c 7.9e-4,-3e-6 0.002,-6.9e-5 0.004,0 0.0384,0.0013 0.0772,0.0019 0.11575,5.29e-4 -0.0172,-0.0011 -0.0344,-0.0026 -0.0517,-0.0036 z m 2.65255,1.668116 c 0.0174,0.0069 0.0351,0.01378 0.0522,0.02119 0.0566,0.0092 0.1122,0.0254 0.1695,0.02739 2.6e-4,1e-5 7.9e-4,1.8e-5 0.001,0 h 5.3e-4 5.3e-4 l 5.3e-4,-5.3e-4 v -5.29e-4 -5.29e-4 -5.29e-4 -5.29e-4 l -5.3e-4,-5.29e-4 v -5.3e-4 c -0.004,-0.0057 -0.0186,-0.01601 -0.0259,-0.0181 -0.054,-0.0132 -0.10996,-0.01929 -0.16536,-0.02429 -0.0109,-7.94e-4 -0.0217,-0.0019 -0.0326,-0.0026 z m -4.11034,3.288687 c -0.004,5.3e-4 -0.0104,0.003 -0.0129,0.005 l -5.3e-4,5.3e-4 h -5.3e-4 v 5.3e-4 5.3e-4 h 5.3e-4 l 5.3e-4,5.3e-4 c 0.0633,0.007 0.1087,0.008 0.15089,0.006 -0.0452,-0.005 -0.0905,-0.0106 -0.1359,-0.0129 z m -0.96842,2.47737 v 1.74098 c 0.0726,-0.18457 0.1597,-0.36371 0.2589,-0.53589 0.0802,-0.12463 0.15321,-0.25408 0.24081,-0.37362 0.11565,-0.15778 0.24114,-0.30608 0.37569,-0.44441 -0.31201,-0.0923 -0.59721,-0.21984 -0.8754,-0.38706 z m 5.97793,0.0357 v 5.3e-4 5.3e-4 c -0.0105,-1.2e-4 -0.0219,-1e-5 -0.0336,5.3e-4 v 5.3e-4 c -0.0234,7.9e-4 -0.049,0.002 -0.0754,0.004 0.0211,0.008 0.0425,0.0156 0.0641,0.0222 0.0579,0.0178 0.11532,0.0154 0.12713,0.004 v -5.3e-4 l 5.3e-4,-10e-4 5.3e-4,-5.3e-4 v -5.3e-4 l 5.3e-4,-5.3e-4 5.3e-4,-5.3e-4 v -0.001 -5.2e-4 -5.3e-4 c 0.002,-0.0149 -0.0196,-0.0221 -0.0553,-0.0248 -0.009,-0.001 -0.0185,-5.3e-4 -0.0289,-0.002 z m -5.07772,12.25196 c -0.0205,0.0116 -0.0419,0.0243 -0.0641,0.0377 -0.0542,0.0327 -0.10552,0.071 -0.15142,0.11472 -0.0147,0.014 -0.0464,0.0465 -0.046,0.0599 v 5.3e-4 5.3e-4 5.3e-4 l 5.3e-4,5.3e-4 v 5.2e-4 l 5.3e-4,5.3e-4 5.3e-4,5.3e-4 5.3e-4,5.3e-4 h 5.2e-4 v 5.3e-4 h 5.3e-4 l 5.3e-4,5.3e-4 h 5.3e-4 c 8e-4,1.6e-4 0.003,5.3e-4 0.004,5.3e-4 0.0663,0.006 0.19741,-0.14324 0.22531,-0.17054 0.009,-0.016 0.0191,-0.0319 0.0289,-0.0475 z m -0.47491,8.51679 c -0.14235,0.0353 -0.28417,0.0703 -0.4253,0.10542 v 51.16949 c 0.13756,-0.17945 0.29186,-0.36783 0.48576,-0.6165 0.94805,-1.04865 2.10881,-1.85986 3.33365,-2.55178 0.23885,-0.13493 0.45008,-0.24867 0.6537,-0.35398 -0.009,-0.0174 -0.0184,-0.0347 -0.0274,-0.0522 -0.29274,-0.57236 -0.46386,-1.1912 -0.54416,-1.82728 -0.0158,-0.19767 -0.0375,-0.39518 -0.0475,-0.59324 -0.0274,-0.54592 -0.0128,-1.09233 0.0124,-1.63866 -0.15009,-0.33631 -0.23024,-0.69906 -0.27078,-1.125 -0.0453,-0.47625 0.0764,-1.07038 0.22634,-1.52238 0.0612,-0.18451 0.14371,-0.36122 0.22169,-0.53951 0.052,-0.85498 0.10083,-1.71027 0.13436,-2.56625 0.0278,-1.06174 0.0324,-2.12357 -0.0202,-3.18482 -0.0437,-1.05746 -0.10433,-2.1138 -0.14573,-3.17138 -0.0352,-1.03107 -0.0851,-2.06456 -0.003,-3.0949 0.07,-0.9429 0.16278,-1.88654 0.35967,-2.81275 0.14866,-0.52925 0.17478,-0.74579 0.4501,-1.2299 0.0938,-0.16501 0.20038,-0.32349 0.31884,-0.47232 -0.0416,-0.0954 -0.0836,-0.19026 -0.12092,-0.28732 -0.24099,-0.62597 -0.36529,-1.29411 -0.41289,-1.96112 -0.0293,-0.73356 -0.008,-1.46706 10e-4,-2.2009 0.0132,-1.05964 0.0348,-2.12004 -0.0124,-3.17914 -0.0663,-1.02692 -0.15895,-2.05395 -0.38189,-3.06079 -0.2466,-1.17585 -0.55091,-2.33797 -0.91054,-3.48454 -0.35921,-1.18429 -0.76178,-2.35587 -1.08211,-3.55172 -0.26846,-1.03808 -0.50026,-2.09241 -0.53536,-3.16829 0.004,-0.17824 0.002,-0.3563 0.0109,-0.53433 0.007,-0.13267 0.0212,-0.26517 0.0413,-0.39688 -0.52723,-0.42441 -1.02545,-0.86841 -1.29191,-1.47122 -0.0889,-0.20112 -0.0786,-0.41191 -0.0176,-0.62581 z m 9.31571,21.83278 5.3e-4,5.3e-4 h 5.3e-4 v -5.3e-4 z m 0.002,0.003 c 0.005,0.014 0.01,0.0279 0.0145,0.0419 0.0213,0.0594 0.0303,0.0885 0.0331,0.0925 h 5.3e-4 v -5.3e-4 c 2.6e-4,-0.004 -2.7e-4,-0.0159 -0.002,-0.0336 -0.0143,-0.0342 -0.0295,-0.0675 -0.046,-0.10025 z m -3.45561,5.27461 v 5.3e-4 h -5.3e-4 v 5.3e-4 5.3e-4 c 0.002,0.007 0.0256,0.0379 0.0351,0.0496 0.0163,0.02 0.0336,0.0389 0.0512,0.0579 -0.0108,-0.0155 -0.022,-0.0307 -0.0331,-0.046 -0.0153,-0.0212 -0.0273,-0.0471 -0.0491,-0.0615 l -5.3e-4,-5.3e-4 h -5.3e-4 l -5.3e-4,-5.3e-4 c -2.6e-4,-8e-5 -5.3e-4,1.3e-4 -0.001,0 l -5.3e-4,-5.3e-4 z m 6.88175,23.53914 v 5.3e-4 h -5.3e-4 -5.3e-4 v 5.3e-4 l -5.3e-4,5.3e-4 -5.3e-4,5.3e-4 v 5.2e-4 5.3e-4 5.3e-4 c -0.0123,0.096 -0.0178,0.18818 -0.0165,0.27647 0.004,-0.0168 0.009,-0.0338 0.0129,-0.0506 0.0181,-0.0719 0.0226,-0.14633 0.0336,-0.21963 -0.007,-10e-4 -0.0194,-0.009 -0.0258,-0.01 -2.6e-4,0 -0.001,-5e-5 -0.002,0 z m -10.4531,3.02669 c -0.0518,0.002 -0.0981,0.0131 -0.11834,0.0418 -0.0117,0.0166 0.0195,0.0465 0.0398,0.0455 0.1051,-0.005 0.20789,-0.0335 0.31109,-0.0553 -0.0101,-0.003 -0.0209,-0.007 -0.0315,-0.0103 -0.0144,-0.005 -0.11468,-0.0253 -0.20102,-0.0217 z m 2.96519,7.52667 c 0.0113,0.0145 0.0174,0.0344 0.0336,0.0434 0.071,0.0372 0.15705,0.0639 0.24391,0.0837 -0.0423,-0.0309 -0.0866,-0.0593 -0.13332,-0.0842 -0.0442,-0.0236 -0.0962,-0.0286 -0.14418,-0.0429 z" /></clipPath><clipPath
       clipPathUnits="userSpaceOnUse"
       id="clipPath84"><path
         id="path85"
         style="fill:#ff0000;fill-opacity:1;fill-rule:nonzero;stroke:none;stroke-width:0.264583"
         d="m 40.887194,66.41186 v 75.35096 c 0.645091,-0.89697 1.333476,-1.7632 2.051036,-2.60088 0.305226,-0.32487 0.602922,-0.65702 0.915707,-0.97462 1.435471,-1.45757 3.030564,-2.74855 4.594035,-4.06331 1.873006,-1.50853 3.777046,-2.97756 5.815666,-4.25918 1.722332,-1.15642 3.44864,-2.30723 5.164542,-3.47317 1.713045,-1.17686 3.431339,-2.34574 5.119069,-3.55896 1.984002,-1.41803 3.951665,-2.85937 5.860108,-4.37854 2.576933,-2.04 5.149151,-4.08588 7.690487,-6.17017 2.659613,-2.14465 5.251207,-4.37024 7.827428,-6.61406 1.845469,-1.65847 3.741849,-3.26378 5.500439,-5.01623 1.445689,-1.441444 2.890295,-2.88436 4.371827,-4.289146 1.361387,-1.269934 2.759808,-2.498561 4.203882,-3.672645 -4.850114,-2.834134 -4.127531,-10.247873 5.13715,-13.33872 0.42627,-0.142213 0.8522,-0.28412 1.27847,-0.426331 2.87584,-0.949592 5.73328,-1.951342 8.58966,-2.957443 2.10202,-0.752224 4.19827,-1.520077 6.28179,-2.322338 0.86466,-0.334259 1.72486,-0.680702 2.59054,-1.012341 -0.20451,-0.716103 -0.32552,-1.174904 -0.32866,-1.271241 -2.7e-4,-0.0085 5.3e-4,-0.01426 0.002,-0.01704 l 5.2e-4,-5.29e-4 v -5.3e-4 h 5.3e-4 v -5.29e-4 h 5.3e-4 5.3e-4 v -5.29e-4 h 5.3e-4 5.3e-4 l 5.3e-4,5.29e-4 h 5.3e-4 5.3e-4 c 2.6e-4,8.2e-5 0.001,2.65e-4 0.002,5.29e-4 0.0359,0.02691 0.18662,0.405615 0.48163,1.227831 0.36965,-0.14065 0.74049,-0.27841 1.11311,-0.410826 0.38407,-0.113652 0.75087,-0.208847 1.12913,-0.301789 -0.0449,0.01169 -0.0783,0.02127 -0.0837,0.02479 l -5.3e-4,5.29e-4 v 5.29e-4 l 5.3e-4,5.3e-4 h 5.3e-4 5.2e-4 c 0.0375,-0.0109 0.0747,-0.02223 0.11213,-0.03359 0.002,-7.94e-4 0.005,-0.0013 0.007,-0.0021 0.38303,-0.116734 0.76006,-0.254786 1.15032,-0.34675 0.37879,-0.08915 0.73688,-0.247097 1.09864,-0.386537 0.27605,-0.09802 0.54096,-0.238453 0.8232,-0.317297 h 5.3e-4 5.3e-4 c 2.6e-4,-3.1e-5 0.001,-2.48e-4 0.002,-5.29e-4 h 5.3e-4 l 5.3e-4,-5.29e-4 h 0.001 5.3e-4 v 5.29e-4 h -5.3e-4 c -0.008,0.007 -0.13725,0.06212 -0.10645,0.05013 0.0593,-0.02312 0.13284,-0.05808 0.16536,-0.07338 0.0272,-0.01283 0.0154,-0.0072 -0.10593,0.05426 v 5.29e-4 c -2.0189,1.023472 -2.90372,1.888585 -3.01739,2.644801 0.76374,-0.223459 1.53609,-0.415726 2.32492,-0.528134 4.82461,-0.687486 4.85416,1.004625 3.38894,3.443202 0.23754,-0.008 0.47036,-0.0092 0.69867,-0.0036 8.85339,0.214759 10.68468,10.417198 -0.57929,14.406356 -1.28742,0.455943 -2.53954,0.990838 -3.77858,1.56373 -3.30596,1.630434 -6.54977,3.387087 -9.80147,5.123201 -0.55566,0.305408 -1.11385,0.606433 -1.66708,0.916223 -1.08678,0.60856 -1.86364,1.052359 -2.90164,1.720305 -1.1882,0.76461 -2.31708,1.6074 -3.44216,2.46032 -1.74561,1.32174 -3.41072,2.74213 -5.00797,4.2385 -1.36746,1.30096 -2.70255,2.63564 -4.03903,3.96823 -1.925919,1.93365 -4.008943,3.69915 -6.036324,5.52318 -2.76284,2.41579 -5.55208,4.8008 -8.406722,7.10757 -2.576629,2.11289 -5.18445,4.18717 -7.796941,6.25544 -2.092089,1.66411 -4.246536,3.24601 -6.420797,4.80022 -1.759804,1.26496 -3.551023,2.48474 -5.33714,3.71192 -1.757379,1.19532 -3.526158,2.37413 -5.290633,3.55895 -1.69505,1.04976 -3.263939,2.27123 -4.813143,3.52072 -1.381885,1.15617 -2.789955,2.29235 -4.001307,3.63079 -0.921295,1.13006 -1.728526,2.34178 -2.370397,3.65042 -0.448088,1.05093 -0.713595,2.16227 -0.893485,3.28662 -0.07981,0.6499 -0.07981,1.30788 -0.02842,1.96009 0.03613,0.45846 -0.0051,0.32271 0.09509,0.57361 -0.03406,-0.40535 0.166984,0.031 0.235643,0.12815 0.127127,0.17972 0.12473,0.1713 0.266652,0.34985 0.911617,0.97026 1.811057,1.95209 2.715596,2.92902 1.479603,1.55357 2.862885,3.19373 4.230233,4.8457 1.184878,1.41219 2.33635,2.84793 3.38119,4.36718 0.992761,1.45904 1.728647,3.06511 2.343525,4.71289 0.518615,1.51869 0.746276,3.11083 0.900203,4.70152 0.06221,0.55015 0.07552,1.10353 0.09612,1.65623 0.03524,0.0928 0.09484,0.30229 0.122475,0.36897 0.03327,0.0803 0.07965,0.16137 0.131257,0.23358 -0.0028,-0.005 -0.0035,-0.009 -0.0031,-0.0119 v -5.3e-4 -5.3e-4 l 5.29e-4,-5.3e-4 v -5.3e-4 l 5.29e-4,-5.3e-4 v -5.3e-4 h 5.29e-4 l 5.29e-4,-5.2e-4 v -5.3e-4 c 0.01072,-0.006 0.04751,0.01 0.0584,0.002 l 5.29e-4,-5.3e-4 5.29e-4,-5.3e-4 v -5.2e-4 l 5.29e-4,-5.3e-4 5.29e-4,-5.3e-4 v -5.3e-4 l 5.3e-4,-5.3e-4 c 0.0016,-0.006 -0.0019,-0.0169 -0.01447,-0.0351 -0.05194,-0.0756 -0.09815,-0.11704 -0.10387,-0.12558 l -5.29e-4,-5.3e-4 v -5.3e-4 -5.3e-4 h 5.29e-4 c 0.0047,10e-4 0.02495,0.0129 0.06563,0.0351 -0.005,-0.0237 -0.130252,-0.14118 -0.132292,-0.17105 3e-6,-2.6e-4 -2.4e-5,-0.001 0,-0.002 4.8e-5,-2.3e-4 5.29e-4,-0.001 5.29e-4,-0.002 v -5.3e-4 l 5.29e-4,-5.3e-4 5.29e-4,-5.3e-4 5.3e-4,-5.3e-4 5.29e-4,-5.3e-4 h 5.29e-4 l 5.29e-4,-5.3e-4 c 0.0021,-5.3e-4 0.006,-5.3e-4 0.0098,0 0.116456,0.02 0.226367,0.0664 0.340032,0.0987 0.654116,0.18573 0.488836,0.13806 1.199409,0.3173 1.720316,0.39959 3.465047,0.68289 5.201751,1.00097 1.868585,0.34336 3.742386,0.66044 5.618779,0.95808 1.687033,0.29953 3.385936,0.5045 5.088578,0.68781 1.778666,0.21127 3.563323,0.36527 5.343858,0.55914 1.526926,0.16305 3.051172,0.35316 4.566647,0.60152 1.28478,0.2086 2.532071,0.56802 3.759462,0.99374 1.023089,0.35855 2.069923,0.74176 2.936254,1.41593 0.45815,0.35652 0.863944,0.77503 1.296045,1.16272 0.412096,0.61794 0.904756,1.18967 1.236616,1.85415 0.30885,0.61846 0.50931,1.24766 0.62683,1.89239 0.61471,0.0301 1.22977,0.0616 1.84433,0.094 2.87838,0.16098 5.75589,0.33472 8.63565,0.46974 1.09828,0.0731 2.19597,0.0616 3.28817,-0.0698 1.38603,-0.18265 2.77713,-0.3256 4.16202,-0.51677 0.92261,-0.12405 1.85444,-0.23924 2.74402,-0.524 0.68488,-0.21649 1.33966,-0.51008 1.99471,-0.8015 0.45614,-0.22153 0.91077,-0.4467 1.3684,-0.66507 1e-4,-2.6e-4 2.6e-4,-7.9e-4 5.3e-4,-0.001 2.6e-4,-5.3e-4 0.001,-0.002 0.002,-0.003 0.0216,-0.0396 0.0784,-0.0449 0.11679,-0.0687 0.008,-0.005 0.0147,-0.0121 0.0227,-0.0181 0.11302,-0.0675 0.22597,-0.13455 0.339,-0.20205 12.16093,-7.25838 19.58729,5.29894 7.28379,12.31294 -0.5325,0.30357 -1.04474,0.64604 -1.60817,0.89349 -0.57996,0.25142 -1.12554,0.57972 -1.70997,0.82217 -0.61343,0.27285 -1.23063,0.53858 -1.85519,0.78445 h 56.34067 V 66.41186 Z m 0,102.85832 v 37.11505 h 36.822557 c -0.05765,-0.0196 -0.115364,-0.0391 -0.173114,-0.0584 -0.376915,-2.42765 -1.229432,-4.8515 -1.60972,-7.27914 -0.425889,-0.0654 -0.851167,-0.13461 -1.275892,-0.20877 -1.98678,-0.31663 -3.970891,-0.65001 -5.949509,-1.01441 -2.067803,-0.37893 -4.14583,-0.71714 -6.188768,-1.21801 -2.362861,-0.61521 -4.738997,-1.32214 -6.697784,-2.84738 -0.672314,-0.54322 -0.856591,-0.66467 -1.4981,-1.30741 -0.906195,-0.90795 -1.656688,-1.96079 -2.287714,-3.07423 -0.860621,-1.68615 -1.547167,-3.45076 -1.819527,-5.33611 -0.06877,-0.76999 -0.109707,-1.53798 -0.153995,-2.30942 -0.03414,-0.39391 -0.116025,-0.80683 -0.117824,-1.19321 -0.137261,-0.52379 -0.426482,-1.0144 -0.691431,-1.48104 -0.788019,-1.16488 -1.701241,-2.23276 -2.592607,-3.31918 -1.198285,-1.44802 -2.406729,-2.88951 -3.706749,-4.24832 -0.685308,-0.74023 -1.380958,-1.47291 -2.059823,-2.22002 z m 23.51846,13.0328 c 0.005,0.1149 0.01077,0.2294 0.01757,0.34416 0.0054,0.0907 -0.0035,-0.18153 -0.0052,-0.27233 -0.0045,-0.0256 -0.0086,-0.0494 -0.01241,-0.0718 z m 61.485656,9.51156 c -0.009,0.004 -0.0181,0.009 -0.0289,0.0155 0.002,-7.9e-4 0.003,-0.001 0.005,-0.002 0.005,-0.003 0.0163,-0.009 0.0243,-0.0134 z" /></clipPath><clipPath
       clipPathUnits="userSpaceOnUse"
       id="clipPath102"><path
         id="path103"
         style="fill:#ff0000;fill-opacity:1;fill-rule:nonzero;stroke:none;stroke-width:0.264583"
         d="m 42.271839,149.15627 v 19.01228 h 7.984524 c -0.02804,-0.0362 -0.05412,-0.0741 -0.07751,-0.11369 -0.194056,-0.32799 -0.329647,-0.69408 -0.412377,-1.06609 -0.08462,-0.38054 0.06281,-0.75987 0.16433,-1.11311 0.22832,-0.53658 0.486598,-1.06342 0.838192,-1.53169 0.34312,-0.43566 0.710984,-0.85204 1.109494,-1.23816 0.432734,-0.42485 0.878874,-0.83528 1.318784,-1.25264 0.531579,-0.49959 1.054854,-1.00786 1.5875,-1.50637 0.444918,-0.42441 0.87776,-0.86157 1.33015,-1.27796 0.740558,-0.68161 1.466114,-0.96728 2.07119,-0.97151 1.008459,-0.007 1.682557,0.76726 1.535824,1.79214 0.236075,0.22779 0.465294,0.51516 0.677479,0.86713 0.05913,0.0981 0.122383,0.19387 0.190685,0.28577 0.151284,0.19093 0.307899,0.37821 0.473874,0.55655 0.175954,0.18619 0.371446,0.35204 0.566891,0.51728 0.208063,0.1724 0.413436,0.35019 0.636654,0.50281 0.290737,0.19951 0.588661,0.3882 0.882634,0.58291 0.493726,0.32043 0.990632,0.64867 1.37976,1.0971 0.07258,0.0933 0.149786,0.18318 0.217556,0.28008 0.31827,0.45508 0.505709,0.98382 0.583427,1.53117 0.0096,0.11206 0.02373,0.22408 0.02894,0.33642 0.02558,0.5517 -0.06212,1.10093 -0.227894,1.62626 -0.01156,0.0317 -0.02249,0.0637 -0.03359,0.0956 h 8.127151 v -19.01228 z m 14.684891,17.54518 c -0.01939,0.0329 -0.03698,0.0635 -0.04186,0.0755 v 5.3e-4 5.3e-4 l -5.29e-4,5.3e-4 v 5.3e-4 5.3e-4 l -5.3e-4,5.3e-4 v 5.2e-4 5.3e-4 h 5.3e-4 l 5.29e-4,-5.3e-4 5.29e-4,-5.2e-4 c 0.006,-0.007 0.02495,-0.0366 0.02997,-0.0496 0.0037,-0.01 0.0075,-0.0193 0.01138,-0.0289 z" /></clipPath><clipPath
       clipPathUnits="userSpaceOnUse"
       id="clipPath183"><path
         id="path184"
         style="fill:#ff0000;fill-opacity:1;fill-rule:nonzero;stroke:none;stroke-width:0.264583"
         d="m 21.031791,162.22214 v 72.82708 H 163.90007 V 162.22214 H 64.329924 c 0.188738,0.1278 0.377883,0.25529 0.567407,0.38189 0.321434,0.2144 0.636751,0.43628 0.937411,0.67903 0.26521,0.20978 0.489574,0.46272 0.702799,0.72347 0.19258,0.234 0.36349,0.48397 0.520898,0.74259 0.01595,0.0268 0.03158,0.0533 0.04754,0.0801 1.494361,2.50632 -0.244806,4.21219 -1.951302,3.17034 -0.0074,0.0245 -0.01503,0.049 -0.02273,0.0734 -0.04238,0.1162 -0.07944,0.23469 -0.127124,0.34881 -0.247799,0.59309 -0.63563,1.10796 -1.118796,1.52962 -0.100322,0.078 -0.197438,0.1609 -0.301273,0.2341 -0.546971,0.38563 -1.17679,0.61986 -1.831928,0.74207 -0.399298,0.0598 -0.470445,0.0791 -0.88315,0.10335 -0.675714,0.0396 -1.35477,0.003 -2.027785,-0.0589 -0.468797,-0.053 -0.615357,-0.065 -1.085204,-0.13642 -0.75514,-0.11468 -1.501892,-0.27456 -2.243276,-0.45734 -1.241298,-0.30201 -2.489369,-0.61083 -3.664373,-1.12241 -0.395369,-0.19605 -0.778404,-0.35819 -1.122415,-0.64492 -0.174006,-0.14505 -0.359879,-0.28911 -0.492475,-0.47181 -1.854102,1.40349 -3.920566,-0.6075 -2.098579,-3.13107 0.03137,-0.0434 0.06268,-0.0868 0.09405,-0.13023 0.192757,-0.25032 0.399738,-0.48825 0.612881,-0.7214 0.289854,-0.31699 0.582007,-0.63169 0.879533,-0.94155 0.308274,-0.32997 0.613217,-0.66274 0.921391,-0.9927 z m 35.924939,4.47931 c -0.01939,0.0329 -0.03698,0.0635 -0.04186,0.0755 v 5.3e-4 5.3e-4 l -5.29e-4,5.3e-4 v 5.3e-4 5.3e-4 l -5.3e-4,5.3e-4 v 5.2e-4 5.3e-4 h 5.3e-4 l 5.29e-4,-5.3e-4 5.29e-4,-5.2e-4 c 0.006,-0.007 0.02495,-0.0366 0.02997,-0.0496 0.0037,-0.01 0.0075,-0.0193 0.01138,-0.0289 z" /></clipPath><clipPath
       clipPathUnits="userSpaceOnUse"
       id="clipPath282"><path
         id="path283"
         style="fill:#ff0000;fill-opacity:1;fill-rule:nonzero;stroke:none;stroke-width:0.264583"
         d="m 49.477599,163.88095 c -7.93e-4,5.3e-4 -0.0013,10e-4 -0.0021,0.002 h 0.0016 z m -0.0021,0.002 -28.443742,5.3e-4 v 46.5263 H 163.90007 V 163.88354 H 66.56338 c 0.292545,0.28388 0.551029,0.5966 0.784447,0.93017 0.121095,0.19003 0.246743,0.37737 0.380339,0.55914 0.113781,0.16379 0.242456,0.31629 0.373105,0.46664 0.521586,0.60027 0.867989,1.18952 1.068149,1.74201 2.374956,2.42444 1.13765,5.04038 -1.092438,4.91701 -0.16074,0.0819 -0.334968,0.1436 -0.519864,0.18346 -0.320839,1.83839 -2.716257,2.62756 -5.12527,0.26458 -0.512773,-0.50297 -1.035619,-0.99775 -1.60197,-1.44074 -0.664361,-0.51454 -1.349587,-1.00305 -1.987476,-1.55133 -0.222893,-0.19268 -0.442209,-0.38913 -0.657839,-0.58962 0.23444,2.69854 -2.903921,3.86487 -5.23689,0.55087 -0.07846,-0.11145 -0.156575,-0.22318 -0.234095,-0.33538 -0.106315,0.12636 -0.215257,0.25051 -0.325043,0.37362 -0.163889,0.18234 -0.333799,0.35878 -0.504881,0.53433 -0.167304,0.17484 -0.348149,0.33559 -0.531233,0.49351 -1.258004,1.08508 -2.463684,1.40661 -3.387908,1.23197 0.173789,0.94075 -0.180123,2.1676 -1.342035,3.42046 -0.07793,0.084 -0.03925,0.0416 -0.117306,0.12712 -0.167187,0.1862 -0.328221,0.37771 -0.501777,0.55811 -0.127987,0.13589 -0.253489,0.2741 -0.373623,0.41703 -0.165484,0.19249 -0.337312,0.37908 -0.507463,0.56741 -0.156012,0.17375 -0.317606,0.34178 -0.484725,0.50487 -3.677671,3.58899 -7.323058,-0.0555 -3.670575,-3.67006 0.09801,-0.097 0.197186,-0.19454 0.286287,-0.29507 0.145214,-0.16354 0.295466,-0.32171 0.437698,-0.48782 0.170905,-0.20227 0.349004,-0.39815 0.530201,-0.59118 0.144346,-0.15186 0.279294,-0.31263 0.419095,-0.46871 0.115051,-0.12642 0.05762,-0.0637 0.172601,-0.1881 1.090088,-1.17915 2.212231,-1.64469 3.133143,-1.61282 0.113167,0.004 0.223551,0.0156 0.33021,0.0341 -0.04415,-0.25479 -0.04687,-0.52882 -0.0026,-0.81597 -0.239135,-0.0604 -0.429522,-0.23684 -0.515731,-0.493 -0.485124,-0.0605 -0.801301,-0.19319 -0.251148,-0.66921 0.05326,-0.046 0.100989,-0.0847 0.148829,-0.12402 0.06465,-0.0523 0.125227,-0.0954 0.15813,-0.12041 l 5.3e-4,-5.3e-4 5.29e-4,-5.3e-4 h 5.29e-4 l 5.29e-4,-5.3e-4 5.29e-4,-5.3e-4 c 2.65e-4,-2.6e-4 5.29e-4,-5.3e-4 0.0011,-0.001 0.0061,-0.006 0.0091,-0.01 0.01035,-0.0114 0.0033,-0.003 0.0066,-0.007 0.01035,-0.0103 1.32e-4,-1.4e-4 7.94e-4,-7.9e-4 0.0011,-0.001 l 5.29e-4,-5.3e-4 v -5.3e-4 -5.3e-4 l 5.3e-4,-5.3e-4 5.29e-4,-5.3e-4 c 5.29e-4,-7.9e-4 0.0016,-0.002 0.0021,-0.003 l 0.0011,-5.3e-4 c 0.0038,-0.004 0.0075,-0.009 0.01138,-0.0129 0.0016,-0.002 0.0034,-0.004 0.0052,-0.006 0.004,-0.005 0.0076,-0.009 0.01035,-0.0124 0.03947,-0.0837 0.08653,-0.16928 0.142111,-0.25683 -0.596622,-0.4406 -0.52705,-1.13829 0.05943,-1.41646 0.01842,-0.0152 0.03843,-0.0311 0.05943,-0.048 0.03861,-0.0287 0.0736,-0.0543 0.111104,-0.0816 0.07585,-0.0847 0.06623,-0.0673 0.112138,-0.11834 l 5.29e-4,-5.3e-4 5.29e-4,-5.3e-4 v -5.3e-4 h 5.3e-4 v -0.001 h 5.29e-4 l 5.29e-4,-5.2e-4 v -5.3e-4 c 0.0019,-0.002 0.0037,-0.005 0.0062,-0.009 0.04878,-0.0642 0.0199,-0.0274 0.09354,-0.11421 0.0277,-0.0289 0.08014,-0.0854 0.153479,-0.15606 0.06633,-0.0608 0.131924,-0.1225 0.204637,-0.1757 0.0083,-0.006 0.01651,-0.0122 0.02479,-0.0186 l 5.3e-4,-5.3e-4 5.29e-4,-0.001 h 5.29e-4 v -5.3e-4 h 5.29e-4 v -5.3e-4 c 0.0053,-0.005 0.01109,-0.01 0.0181,-0.016 l 5.29e-4,-5.2e-4 5.29e-4,-5.3e-4 c 0.03548,-0.0378 0.0687,-0.0776 0.104386,-0.11524 0.08673,-0.0947 0.175117,-0.18829 0.276471,-0.2677 0.113951,-0.0887 0.2315,-0.17323 0.357082,-0.24493 0.105743,-0.0576 0.212381,-0.11366 0.321429,-0.16485 0.05762,-0.028 0.1153,-0.0558 0.172598,-0.0842 0.12415,-0.15918 0.319392,-0.29352 0.584978,-0.37363 0.238038,-0.20249 0.476202,-0.40505 0.709517,-0.61288 0.02939,-0.0265 0.05859,-0.0525 0.08785,-0.0791 z m 0.0031,-0.002 v 5.3e-4 l -5.29e-4,5.3e-4 -5.29e-4,5.3e-4 v 5.3e-4 h 0.0011 l 5.29e-4,-0.002 z m -3.222543,2.58951 c -0.01577,1.5e-4 -0.03363,0.007 -0.05271,0.0176 -0.0068,0.009 -0.01381,0.0171 -0.02066,0.0258 0.0031,-0.004 0.0131,-0.0185 0.0181,-0.0238 -0.02609,0.0149 -0.05436,0.0366 -0.0832,0.0599 0.0555,-0.0233 0.114982,-0.0428 0.178802,-0.0584 -0.01109,-0.0151 -0.02453,-0.0214 -0.04031,-0.0212 z m -0.454236,1.8495 c -0.0036,0.003 -0.0071,0.006 -0.01035,0.009 l -5.29e-4,5.3e-4 v 5.3e-4 c -2.64e-4,2.7e-4 -0.0011,0.002 -0.0016,0.002 h -5.29e-4 l -5.3e-4,5.3e-4 -5.29e-4,5.3e-4 -5.29e-4,5.3e-4 v 5.3e-4 c -0.0032,0.004 -0.006,0.006 -0.0083,0.009 0.0085,-0.009 0.01691,-0.0161 0.02273,-0.0222 z" /></clipPath></defs><g
     inkscape:groupmode="layer"
     id="layer5"
     inkscape:label="Layer 1"
     style="display:inline"><rect
       style="display:inline;fill:#ffffff;fill-opacity:1;stroke:#000000;stroke-width:2.99306;stroke-linecap:round;stroke-linejoin:round;stroke-dasharray:none;stroke-opacity:1"
       id="rect12"
       width="45.012135"
       height="22.679695"
       x="1.3367844"
       y="23.878227"
       rx="2.2248685"
       ry="2.2248685"
       sodipodi:insensitive="true" /><path
       style="fill:#ffffff;fill-opacity:1;stroke:#000000;stroke-width:3.5;stroke-linecap:round;stroke-linejoin:round;stroke-dasharray:none;stroke-opacity:1"
       d="M 8.5989582,40.878124 H 38.364583"
       id="path14"
       sodipodi:insensitive="true" /><path
       style="fill:#ffffff;fill-opacity:1;stroke:#000000;stroke-width:3.5;stroke-linecap:round;stroke-linejoin:round;stroke-dasharray:none;stroke-opacity:1"
       d="M 23.01875,34.792707 H 38.364583"
       id="path15"
       sodipodi:nodetypes="cc"
       sodipodi:insensitive="true" /><path
       style="fill:#ffffff;fill-opacity:1;stroke:#000000;stroke-width:3.5;stroke-linecap:round;stroke-linejoin:round;stroke-dasharray:none;stroke-opacity:1"
       d="M 8.4666668,34.792707 H 11.377083"
       id="path16"
       sodipodi:nodetypes="cc"
       sodipodi:insensitive="true" /><g
       style="fill:currentColor;stroke-width:1.00157;stroke-dasharray:none"
       id="g16"
       transform="matrix(3.1012836,0,0,3.1012836,13.533817,-14.136933)"><path
         style="display:inline;fill:#ffffff;fill-opacity:1;stroke:#000000;stroke-width:0;stroke-linecap:round;stroke-linejoin:round;stroke-dasharray:none;stroke-opacity:1"
         d="m 19.182291,28.707291 2.116667,1.5875 L 27.384375,30.1625 46.963541,9.2604166 46.566666,5.5562499 41.539583,1.0583333 38.496875,1.5875 18.123958,19.976041 17.859375,26.855208 Z"
         id="path17"
         transform="matrix(0.32244713,0,0,0.32244713,-4.3639405,4.5584135)" /><path
         fill-rule="evenodd"
         d="M 7.7499797,4.9175457 C 8.3022112,4.3932705 9.1716199,4.4044849 9.7101448,4.9428297 l 1.0064192,1.0064195 c 0.538146,0.5387171 0.549048,1.408123 0.02458,1.9601651 l -0.290056,0.305507 -5.6676929,6.3173367 c -0.066591,0.07418 -0.1615742,0.116568 -0.2612617,0.116584 H 2.4151841 c -0.057283,3.1e-5 -0.1137033,-0.01395 -0.164342,-0.04073 L 1.9614877,14.897461 C 1.8955047,14.963278 1.8060644,15.000166 1.7128677,15 H 0.30823484 c -0.31336537,5.6e-4 -0.47048335,-0.378475 -0.24862001,-0.599778 L 1.0512856,13.408551 c -0.026779,-0.05064 -0.040764,-0.107059 -0.040734,-0.164342 V 11.13726 c 1.6e-5,-0.09969 0.042401,-0.194671 0.1165845,-0.261262 L 7.444472,5.2083047 Z M 7.6692132,5.9499508 1.8722935,11.151307 4.508087,13.787099 9.7094425,7.99018 Z m 2.5178048,1.5240267 0.04495,-0.047757 C 10.494526,7.1502473 10.489227,6.7152814 10.220024,6.4457863 L 9.2136071,5.4393668 C 8.9443027,5.1699671 8.5093344,5.1643586 8.2331734,5.4267251 l -0.047757,0.04565 z M 3.6744375,13.946525 1.7128677,11.984956 v 1.113873 l 0.8476959,0.847696 z"
         id="path1"
         style="stroke-width:1.12856499;stroke-dasharray:none"
         sodipodi:nodetypes="cccccccccccccccccccccccccccccccccccc" /></g></g></svg>
